<?xml version="1.0" encoding="UTF-8"?>
<svg width="40px" height="40px" viewBox="0 0 40 40" version="1.1" xmlns="http://www.w3.org/2000/svg" xmlns:xlink="http://www.w3.org/1999/xlink">
    <title>icon_skill_叫唤摆拍</title>
    <g id="小四足操控" stroke="none" stroke-width="1" fill="none" fill-rule="evenodd">
        <g id="小四足操控-切图" transform="translate(-406.000000, -277.000000)">
            <g id="编组-10" transform="translate(406.000000, 276.000000)">
                <g id="编组" transform="translate(0.000000, 1.000000)">
                    <path d="M14.9915393,6.7243466 L14.4078476,6.46592583 L14.9915393,6.20750506 C15.7508848,5.8713162 16.3447745,4.98048164 16.5689004,3.84146339 L16.741181,2.96592583 L16.9134615,3.84146339 C17.1375874,4.98048164 17.7314771,5.8713162 18.4908226,6.20750506 L19.0745143,6.46592583 L18.4908226,6.7243466 C17.7314771,7.06053545 17.1375874,7.95137001 16.9134615,9.09038826 L16.741181,9.96592583 L16.5689004,9.09038826 C16.3447745,7.95137001 15.7508848,7.06053545 14.9915393,6.7243466 Z" id="星形备份-4" fill="#FE832D" opacity="0.400000006" transform="translate(16.741181, 6.465926) rotate(-345.000000) translate(-16.741181, -6.465926) "></path>
                    <path d="M19.9915393,34.7243466 L19.4078476,34.4659258 L19.9915393,34.2075051 C20.7508848,33.8713162 21.3447745,32.9804816 21.5689004,31.8414634 L21.741181,30.9659258 L21.9134615,31.8414634 C22.1375874,32.9804816 22.7314771,33.8713162 23.4908226,34.2075051 L24.0745143,34.4659258 L23.4908226,34.7243466 C22.7314771,35.0605355 22.1375874,35.95137 21.9134615,37.0903883 L21.741181,37.9659258 L21.5689004,37.0903883 C21.3447745,35.95137 20.7508848,35.0605355 19.9915393,34.7243466 Z" id="星形备份-5" fill="#FE832D" opacity="0.400000006" transform="translate(21.741181, 34.465926) rotate(-345.000000) translate(-21.741181, -34.465926) "></path>
                    <g transform="translate(24.000000, 20.576923) rotate(-345.000000) translate(-24.000000, -20.576923) translate(11.000000, 9.076923)">
                        <path d="M16.5584816,0 C17.4193424,7.30040853e-16 18.1836201,0.55086019 18.4558482,1.36754447 L18.974,2.923 L22,2.92307692 C24.209139,2.92307692 26,4.71393792 26,6.92307692 L26,18.9230769 C26,21.1322159 24.209139,22.9230769 22,22.9230769 L4,22.9230769 C1.790861,22.9230769 2.705415e-16,21.1322159 0,18.9230769 L0,6.92307692 C-2.705415e-16,4.71393792 1.790861,2.92307692 4,2.92307692 L5.025,2.923 L5.54415184,1.36754447 C5.81637994,0.55086019 6.58065762,1.04631599e-15 7.44151844,0 L16.5584816,0 Z" id="形状结合" stroke="#333333" stroke-width="2" stroke-linecap="round" stroke-linejoin="round"></path>
                        <line x1="23" y1="8.92307692" x2="23" y2="17.9230769" id="路径-11" stroke="#FE832D" stroke-linecap="round" stroke-linejoin="round"></line>
                        <ellipse id="椭圆形" stroke="#333333" stroke-width="2" stroke-linecap="round" stroke-linejoin="round" cx="8.5" cy="12.9230769" rx="5.5" ry="6"></ellipse>
                        <path d="M11,12.9230769 C11,11.2662227 10.1045695,9.92307692 9,9.92307692" id="路径" stroke="#333333" stroke-linecap="round" stroke-linejoin="round"></path>
                        <circle id="椭圆形备份" fill="#333333" cx="19.5" cy="6.42307692" r="1.5"></circle>
                        <path d="M8.30901699,1.92307692 L12.5,1.92307692 C12.7761424,1.92307692 13,2.14693455 13,2.42307692 L13,3.42307692 C13,3.6992193 12.7761424,3.92307692 12.5,3.92307692 L7.80901699,3.92307692 C7.53287462,3.92307692 7.30901699,3.6992193 7.30901699,3.42307692 C7.30901699,3.34545438 7.32708954,3.26889784 7.3618034,3.19947013 L7.8618034,2.19947013 C7.94649941,2.03007811 8.11963097,1.92307692 8.30901699,1.92307692 Z" id="矩形" fill="#333333"></path>
                    </g>
                    <line x1="4" y1="21" x2="7" y2="20" id="路径-9" stroke="#333333" stroke-width="2" stroke-linecap="round" stroke-linejoin="round"></line>
                    <line x1="2" y1="14" x2="7" y2="15" id="路径-9备份" stroke="#333333" stroke-width="2" stroke-linecap="round" stroke-linejoin="round"></line>
                    <line x1="7" y1="8" x2="9" y2="11" id="路径-9备份-2" stroke="#333333" stroke-width="2" stroke-linecap="round" stroke-linejoin="round"></line>
                    <path d="M32.0006144,6.94300703 L31,6.5 L32.0006144,6.05699297 C33.3023495,5.48066921 34.3204461,3.95352425 34.704662,2.00092154 L35,0.5 L35.295338,2.00092154 C35.6795539,3.95352425 36.6976505,5.48066921 37.9993856,6.05699297 L39,6.5 L37.9993856,6.94300703 C36.6976505,7.51933079 35.6795539,9.04647575 35.295338,10.9990785 L35,12.5 L34.704662,10.9990785 C34.3204461,9.04647575 33.3023495,7.51933079 32.0006144,6.94300703 Z" id="星形备份-2" fill="#FE832D" transform="translate(35.000000, 6.500000) rotate(-345.000000) translate(-35.000000, -6.500000) "></path>
                    <path d="M3.11731952,33.0695735 L2.24178196,32.6634837 L3.11731952,32.2573939 C4.25633777,31.7290971 5.14717233,30.3292143 5.48336119,28.5393284 L5.74178196,27.1634837 L6.00020273,28.5393284 C6.33639158,30.3292143 7.22722615,31.7290971 8.36624439,32.2573939 L9.24178196,32.6634837 L8.36624439,33.0695735 C7.22722615,33.5978703 6.33639158,34.9977531 6.00020273,36.787639 L5.74178196,38.1634837 L5.48336119,36.787639 C5.14717233,34.9977531 4.25633777,33.5978703 3.11731952,33.0695735 Z" id="星形备份-3" fill="#FE832D" transform="translate(5.741782, 32.663484) rotate(-345.000000) translate(-5.741782, -32.663484) "></path>
                </g>
            </g>
        </g>
    </g>
</svg>