<?xml version="1.0" encoding="UTF-8"?>
<svg width="50px" height="50px" viewBox="0 0 50 50" version="1.1" xmlns="http://www.w3.org/2000/svg" xmlns:xlink="http://www.w3.org/1999/xlink">
    <title>编组 10</title>
    <g id="loona" stroke="none" stroke-width="1" fill="none" fill-rule="evenodd" fill-opacity="0.8">
        <g id="HOME备份-4" transform="translate(-1355.000000, -1442.000000)">
            <g id="编组-10" transform="translate(1355.000000, 1442.000000)">
                <path d="M48.1975777,29 C47.8019864,29 47.411001,28.866058 47.087568,28.6059613 L44.4591634,26.4898854 C44.0164901,26.1337451 43.9422847,25.480648 44.2933528,25.0310598 C44.6449326,24.5825098 45.2882162,24.5061941 45.7314013,24.8633727 L47.9514206,26.6503043 C47.9524441,26.5511457 47.9529559,26.451468 47.9529559,26.3517902 C47.9529559,12.966416 37.2182566,2.07662012 24.0235221,2.07662012 C23.4585379,2.07662012 23,1.61145721 23,1.03831006 C23,0.464643752 23.4585379,0 24.0235221,0 C38.3472014,0 50,11.82116 50,26.3517902 C50,26.6544576 49.9953942,26.9560866 49.9851589,27.2571966 C49.9626414,27.9393663 49.5670502,28.5421053 48.9539605,28.8302363 C48.710874,28.9444504 48.4534582,29 48.1975777,29" id="Fill-51" fill="#792C02"></path>
                <path d="M26.3916773,50 C13.3764478,50 1.98138865,40.3071369 0.121696592,26.9413998 C0.0793357778,26.6359425 0.0422046934,26.3320678 0.0103033393,26.0287207 C-0.0623899104,25.3376169 0.253485793,24.6739462 0.833985844,24.2962131 C1.41971563,23.9158422 2.15606164,23.9010705 2.75434277,24.2561185 L5.7096633,26.0076183 C6.20753361,26.303052 6.37436201,26.9498408 6.08149712,27.4526056 C5.78863222,27.9543154 5.14799028,28.1210244 4.65011996,27.8277009 L2.1529238,26.3473671 C2.16599812,26.4476035 2.17907245,26.5483675 2.19319272,26.6486039 C4.06700505,40.1187979 16.4593737,49.5346919 29.808783,47.6481367 C30.3840533,47.5663649 30.9096412,47.9699484 30.9896561,48.5460442 C31.0701939,49.123195 30.6716885,49.6570859 30.099033,49.7378026 C28.8538342,49.9140077 27.6154341,50 26.3916773,50" id="Fill-53" fill="#792C02"></path>
                <path d="M26.999738,40.2548892 C26.9290085,40.2403594 26.9001927,40.1983265 26.9001927,40.0997308 L26.999738,27.7534784 C26.999738,27.2189862 27.1563909,26.9366912 27.6394476,26.6694451 L38.3992478,20.4044692 C38.4416855,20.3769662 38.4841233,20.3769662 38.5412308,20.3904583 C38.5978145,20.4049882 38.6402522,20.447021 38.6402522,20.5456167 L38.5978145,32.933902 C38.5978145,33.3983394 38.4275396,33.7512081 37.9581049,34.0319463 L27.1417211,40.2403594 C27.0987594,40.2652677 27.0468911,40.270457 26.999738,40.2543703 L26.999738,40.2548892 Z M26.2321913,43 C26.7293939,43 27.3266658,42.8028087 28.037105,42.408426 L39.1809404,36.0728765 C40.4881275,35.3271819 41,34.5534654 41,32.9759349 L40.9717082,20.2218078 C40.9717082,18.5321895 40.3602904,17.6738884 39.2941077,17.6738884 C38.8251969,17.6738884 38.2279251,17.8565498 37.5604476,18.2364026 L26.3883203,24.613985 C25.0523174,25.3887393 24.5828827,26.1764668 24.5828827,27.7114455 L24.5828827,40.4655726 C24.5828827,42.099147 25.1660086,43 26.2327152,43 L26.2321913,43 Z M20.148925,39.5647196 C20.4045993,39.5647196 20.6885654,39.4806538 20.9872013,39.2829436 L20.9872013,24.2196024 C20.9872013,23.6705802 21.0584548,23.5299517 21.5273656,23.2767165 L34.7034972,15.744008 C34.7459349,14.8291441 34.1638568,14.2380891 33.3386786,14.2380891 C32.983459,14.2380891 32.5711319,14.3501768 32.1593286,14.57539 L20.2196546,21.375377 C18.8265442,22.1641423 18.6704152,22.4599293 18.6704152,24.036422 L18.6704152,37.5237894 C18.6704152,38.7339214 19.2813091,39.5647196 20.148925,39.5647196 Z M14.4633161,36.3126196 C14.7331362,36.3126196 15.0176263,36.2285538 15.3021163,36.0308436 L15.3021163,20.9675024 C15.3021163,20.461032 15.4016616,20.2638407 15.8564265,20.0246165 L29.0325581,12.5064379 C29.0749958,11.5770441 28.4777239,11 27.6682634,11 C27.29785,11 26.9001927,11.0985957 26.4731957,11.3518308 L14.5633853,18.1378069 C13.1702749,18.9405831 13,19.1938183 13,20.7988519 L13,34.2716894 C13,35.4818214 13.5820781,36.3126196 14.46384,36.3126196 L14.4633161,36.3126196 Z" id="Fill-55" fill="#FFC72A"></path>
            </g>
        </g>
    </g>
</svg>