<?xml version="1.0" encoding="UTF-8"?>
<svg width="52px" height="51px" viewBox="0 0 52 51" version="1.1" xmlns="http://www.w3.org/2000/svg" xmlns:xlink="http://www.w3.org/1999/xlink">
    <title>编组 7</title>
    <defs>
        <polygon id="path-1" points="0 0 20 0 20 18 0 18"></polygon>
    </defs>
    <g id="loona" stroke="none" stroke-width="1" fill="none" fill-rule="evenodd">
        <g id="HOME备份-4" transform="translate(-987.000000, -1441.000000)">
            <g id="编组-7" transform="translate(987.000000, 1441.000000)">
                <path d="M49.8707339,18 C49.861178,18 49.8521531,18 49.8425972,17.9994612 C49.2565036,17.984375 48.7935746,17.4892241 48.8089702,16.8943966 C48.8100319,16.8345905 48.9602715,10.8599138 48.8089702,6.24730603 C48.7542894,4.59105603 47.9330151,3.38846983 46.3663827,2.67349138 C45.6141231,2.32920259 44.7434769,2.15517241 43.7778027,2.15517241 L32.065487,2.19773707 L32.0617708,2.19773707 C31.476739,2.19773707 31.0021306,1.71767241 31,1.12392241 C30.9978836,0.528556034 31.4714302,0.0447198276 32.0575238,0.0425646552 L43.7740866,0 C45.0460795,0 46.2097726,0.238146552 47.2380907,0.707435345 C49.5384019,1.75862069 50.850211,3.70043103 50.9314359,6.17564655 C51.0848607,10.8529095 50.9330285,16.8895474 50.9319668,16.950431 C50.9165712,17.5360991 50.4446172,18 49.8707339,18" id="Fill-1" fill-opacity="0.8" fill="#792C02"></path>
                <g id="编组">
                    <mask id="mask-2" fill="white">
                        <use xlink:href="#path-1"></use>
                    </mask>
                    <g id="Clip-4"></g>
                    <path d="M1.12944072,18 C0.555562731,18 0.0836131201,17.5360991 0.0682176885,16.950431 C0.0671559345,16.8900862 -0.0852057509,10.8529095 0.0687485654,6.17564655 C0.149972739,3.70043103 1.46123881,1.75862069 3.76205953,0.707435345 C4.78983731,0.238146552 5.95405047,0 7.22178463,0 L18.9419551,0.0425646552 C19.5285742,0.0447198276 20.0021164,0.528556034 20,1.12392241 C19.9978694,1.71767241 19.5227345,2.19773707 18.938239,2.19773707 L18.9345228,2.19773707 L7.21806849,2.15517241 C6.25665033,2.15517241 5.38601213,2.32920259 4.63375948,2.67295259 C3.0671416,3.38900862 2.24534407,4.59105603 2.19119462,6.24730603 C2.03936381,10.8599138 2.19013287,16.8345905 2.19119462,16.8943966 C2.20659005,17.4892241 1.74366535,17.984375 1.1575772,17.9994612 C1.14802141,18 1.1389965,18 1.12944072,18" id="Fill-3" fill-opacity="0.8" fill="#792C02" mask="url(#mask-2)"></path>
                </g>
                <path d="M44.7780072,51 L33.0580276,50.9574391 C32.4714182,50.9552842 31.9978836,50.4714911 32,49.8761778 C32.0021306,49.2824807 32.4772577,48.8024589 33.0617437,48.8024589 L33.0659907,48.8024589 L44.7817233,48.8450197 C45.7431258,48.8450197 46.6142807,48.6710051 47.3659902,48.3272857 C48.9325826,47.6107548 49.7543667,46.4088145 49.8090461,44.753251 C49.9603436,40.1410544 49.8101079,34.1669104 49.8085153,34.1071097 C49.793651,33.5123351 50.2560373,33.0172284 50.8421159,33.0021436 C51.4372192,32.9633539 51.9160624,33.4563057 51.9314576,34.0510802 C51.9330502,34.1114197 52.0848786,40.1475194 51.9314576,44.824904 C51.8497039,47.2988214 50.5384592,49.2404586 48.2382068,50.292089 C47.2104458,50.7618747 46.0462516,51 44.7780072,51" id="Fill-5" fill-opacity="0.8" fill="#792C02"></path>
                <path d="M7.22580115,51 C5.95379702,51 4.79009374,50.7618534 3.76176653,50.2920259 C1.46143519,49.2397629 0.149614565,47.2984914 0.0689198119,44.8243534 C-0.0850372824,40.1465517 0.0667962657,34.109375 0.0683889253,34.049569 C0.0832537482,33.4639009 0.555742762,33 1.1296311,33 C1.13865617,33 1.14821213,33 1.15776809,33.0005388 C1.74386682,33.015625 2.20679988,33.5107759 2.19140417,34.1056034 C2.18981151,34.1654095 2.03957062,40.1400862 2.19140417,44.752694 C2.24555459,46.4084052 3.06736695,47.6104526 4.6340131,48.3270474 C5.38574843,48.6707974 6.25640234,48.8448276 7.22208495,48.8448276 L18.9345036,48.8022629 L18.9382198,48.8022629 C19.5232568,48.8022629 19.9984002,49.2823276 20,49.8760776 C20.0021164,50.471444 19.5285656,50.9552802 18.9424669,50.9574353 L7.22580115,51 Z" id="Fill-7" fill-opacity="0.8" fill="#792C02"></path>
                <path d="M20,19 C20,20.6570065 18.6571209,22 17.0002557,22 C15.3433904,22 14,20.6570065 14,19 C14,17.3429935 15.3433904,16 17.0002557,16 C18.6571209,16 20,17.3429935 20,19" id="Fill-9" fill-opacity="0.8" fill="#FFC72A"></path>
                <path d="M37,19 C37,20.6570065 35.6571209,22 34.0002557,22 C32.3433904,22 31,20.6570065 31,19 C31,17.3429935 32.3433904,16 34.0002557,16 C35.6571209,16 37,17.3429935 37,19" id="Fill-11" fill-opacity="0.8" fill="#FFC72A"></path>
                <path d="M25.5,40 C19.7102258,40 15,35.5412287 15,30.0608545 C15,29.4747324 15.4753196,29 16.0609812,29 C16.6471732,29 17.1219623,29.4747324 17.1219623,30.0608545 C17.1219623,34.3716366 20.8804881,37.8782911 25.5,37.8782911 C30.1195119,37.8782911 33.8780377,34.3716366 33.8780377,30.0608545 C33.8780377,29.4747324 34.3528268,29 34.9390188,29 C35.5246804,29 36,29.4747324 36,30.0608545 C36,35.5412287 31.2897742,40 25.5,40" id="Fill-13" fill-opacity="0.8" fill="#FFC72A"></path>
            </g>
        </g>
    </g>
</svg>