<?xml version="1.0" encoding="UTF-8"?>
<svg width="51px" height="46px" viewBox="0 0 51 46" version="1.1" xmlns="http://www.w3.org/2000/svg" xmlns:xlink="http://www.w3.org/1999/xlink">
    <title>编组 14</title>
    <g id="loona" stroke="none" stroke-width="1" fill="none" fill-rule="evenodd" opacity="0.8">
        <g id="HOME备份-4" transform="translate(-987.000000, -1631.000000)">
            <g id="编组-14" transform="translate(987.000000, 1631.000000)">
                <path d="M16.3040156,14.0579868 C8.46042,14.0579868 2.07859959,20.3760063 2.07859959,28.142334 L2.07859959,29.857666 C2.07859959,37.6239937 8.46042,43.9420132 16.3040156,43.9420132 L34.6959844,43.9420132 C42.53958,43.9420132 48.9214004,37.6239937 48.9214004,29.857666 L48.9214004,28.142334 C48.9214004,20.3760063 42.53958,14.0579868 34.6959844,14.0579868 L16.3040156,14.0579868 Z M34.6959844,46 L16.3040156,46 C7.31407232,46 0,38.7584589 0,29.857666 L0,28.142334 C0,19.2415411 7.31407232,12 16.3040156,12 L34.6959844,12 C43.6859277,12 51,19.2415411 51,28.142334 L51,29.857666 C51,38.7584589 43.6859277,46 34.6959844,46 L34.6959844,46 Z" id="Fill-33" fill="#792C02"></path>
                <path d="M39,26.5 C39,27.881077 37.880654,29 36.5002725,29 C35.119346,29 34,27.881077 34,26.5 C34,25.118923 35.119346,24 36.5002725,24 C37.880654,24 39,25.118923 39,26.5" id="Fill-35" fill="#FFC72A"></path>
                <path d="M35,34.5 C35,35.881077 33.880654,37 32.5002725,37 C31.119346,37 30,35.881077 30,34.5 C30,33.118923 31.119346,32 32.5002725,32 C33.880654,32 35,33.118923 35,34.5" id="Fill-37" fill="#FFC72A"></path>
                <path d="M23.6580784,30 L9.34192163,30 C8.60064412,30 8,29.5524 8,29 C8,28.4476 8.60064412,28 9.34192163,28 L23.6580784,28 C24.3993559,28 25,28.4476 25,29 C25,29.5524 24.3993559,30 23.6580784,30" id="Fill-39" fill="#FFC72A"></path>
                <path d="M16,38 C15.4476,38 15,37.3993559 15,36.6580784 L15,22.3419216 C15,21.6006441 15.4476,21 16,21 C16.5524,21 17,21.6006441 17,22.3419216 L17,36.6580784 C17,37.3993559 16.5524,38 16,38" id="Fill-41" fill="#FFC72A"></path>
                <path d="M26.9699291,14 C26.40133,14 25.9398583,13.5159836 25.9398583,12.9196063 C25.9398583,8.31118702 24.3195568,8.11293478 20.7683875,7.67915672 C20.3069158,7.62243605 19.8294779,7.56463498 19.3401943,7.49224861 C17.8651328,7.27562967 16.7336,6.60848657 15.9770129,5.51134678 C14.6358607,3.56771853 15.0592198,0.998002134 15.0777611,0.889422568 C15.178708,0.302768795 15.71692,-0.0921150992 16.2747034,0.0186252541 C16.8335168,0.123963639 17.2048574,0.684687964 17.1059706,1.27026134 C17.0987601,1.3129369 16.8299116,3.07235802 17.6519081,4.25376852 C18.0737222,4.85986938 18.7195766,5.21910028 19.6260389,5.3525289 C20.0993565,5.4222143 20.5608282,5.47893496 21.0068489,5.53295465 C24.4447104,5.95322779 28,6.38700586 28,12.9196063 C28,13.5159836 27.5385283,14 26.9699291,14" id="Fill-43" fill="#792C02"></path>
            </g>
        </g>
    </g>
</svg>