<?xml version="1.0" encoding="UTF-8"?>
<svg width="53px" height="47px" viewBox="0 0 53 47" version="1.1" xmlns="http://www.w3.org/2000/svg" xmlns:xlink="http://www.w3.org/1999/xlink">
    <title>编组 11</title>
    <g id="loona" stroke="none" stroke-width="1" fill="none" fill-rule="evenodd" opacity="0.8">
        <g id="HOME备份-4" transform="translate(-1353.000000, -1635.000000)">
            <g id="编组-11" transform="translate(1353.000000, 1635.000000)">
                <path d="M22,24 C15.9343545,24 11,19.525693 11,14.0249243 C11,13.4591661 11.478726,13 12.0697788,13 C12.6602966,13 13.1395575,13.4591661 13.1395575,14.0249243 C13.1395575,18.394689 17.1143204,21.9501514 22,21.9501514 C26.8856796,21.9501514 30.8604425,18.394689 30.8604425,14.0249243 C30.8604425,13.4591661 31.3397034,13 31.9302212,13 C32.521274,13 33,13.4591661 33,14.0249243 C33,19.525693 28.0656455,24 22,24" id="Fill-57" fill="#FFC72A"></path>
                <path d="M2.15730088,2.12523719 C2.10619469,2.12523719 2.06489676,2.16827324 2.06489676,2.22087287 L2.06489676,31.4832638 C2.06489676,31.5353321 2.10619469,31.5783681 2.15730088,31.5783681 L5.75228614,31.5783681 C6.94166667,31.5783681 7.90958702,32.5745731 7.90958702,33.7987097 L7.90958702,39.7770019 C7.90958702,39.8062239 7.90958702,39.8423529 7.96843658,39.8657306 C8.02883481,39.8880455 8.0520649,39.8625427 8.07064897,39.8402277 L14.6628319,32.3121063 C15.0716814,31.8456167 15.655531,31.5783681 16.2651917,31.5783681 L39.8426991,31.5783681 C39.8938053,31.5783681 39.9351032,31.5353321 39.9351032,31.4832638 L39.9351032,2.22087287 C39.9351032,2.16827324 39.8938053,2.12523719 39.8426991,2.12523719 L2.15730088,2.12523719 Z M8.00870206,42 C7.74749263,42 7.48318584,41.9505882 7.22765487,41.8496395 C6.38724189,41.5175712 5.84469027,40.7036053 5.84469027,39.7770019 L5.84469027,33.7987097 C5.84469027,33.7466414 5.80287611,33.7036053 5.75228614,33.7036053 L2.15730088,33.7036053 C0.967920354,33.7036053 0,32.7074004 0,31.4832638 L0,2.22087287 C0,0.996204934 0.967920354,0 2.15730088,0 L39.8426991,0 C41.0320796,0 42,0.996204934 42,2.22087287 L42,31.4832638 C42,32.7074004 41.0320796,33.7036053 39.8426991,33.7036053 L16.2651917,33.7036053 C16.2388643,33.7036053 16.2135693,33.7152941 16.1960177,33.7354839 L9.60435103,41.2636053 C9.18466077,41.742315 8.604941,42 8.00870206,42 L8.00870206,42 Z" id="Fill-59" fill="#792C02"></path>
                <path d="M45.1410682,47 C44.5255904,47 43.9276977,46.7511086 43.4939324,46.2863051 L37.3093133,39.6486853 C37.2917282,39.6301344 37.2650842,39.6187977 37.2379072,39.6187977 L32.0657624,39.6187977 C31.4769287,39.6187977 31,39.1570861 31,38.5881914 C31,38.0187814 31.4769287,37.5575851 32.0657624,37.5575851 L37.2379072,37.5575851 C37.866707,37.5575851 38.4688628,37.8162673 38.8909047,38.2681882 L45.0771224,44.9063233 C45.0963062,44.9269354 45.1192201,44.9511547 45.1826329,44.9300273 C45.2433814,44.9073539 45.2433814,44.8723133 45.2433814,44.8439716 L45.2433814,39.7105217 C45.2433814,38.5237785 46.2425336,37.5575851 47.4702919,37.5575851 L48.5376529,37.5575851 C49.8229623,37.5575851 50.8684752,36.546045 50.8684752,35.3031339 L50.8684752,11.1534519 C50.8684752,11.1024368 50.8258447,11.0612126 50.7730895,11.0612126 L47.2416858,11.0612126 C46.653385,11.0612126 46.1759235,10.599501 46.1759235,10.0306063 C46.1759235,9.46119632 46.653385,9 47.2416858,9 L50.7730895,9 C52.0008478,9 53,9.9661934 53,11.1534519 L53,35.3031339 C53,37.6828038 50.9979654,39.6187977 48.5376529,39.6187977 L47.4702919,39.6187977 C47.4175366,39.6187977 47.3749061,39.660022 47.3749061,39.7105217 L47.3749061,44.8439716 C47.3749061,45.7431756 46.814848,46.5321047 45.9473174,46.8541692 C45.6835412,46.9520768 45.4107061,47 45.1410682,47" id="Fill-61" fill="#792C02"></path>
            </g>
        </g>
    </g>
</svg>