<?xml version="1.0" encoding="UTF-8"?>
<svg width="43px" height="51px" viewBox="0 0 43 51" version="1.1" xmlns="http://www.w3.org/2000/svg" xmlns:xlink="http://www.w3.org/1999/xlink">
    <title>编组 9</title>
    <g id="loona" stroke="none" stroke-width="1" fill="none" fill-rule="evenodd">
        <g id="HOME备份-4" transform="translate(-1236.000000, -1441.000000)">
            <g id="编组-9" transform="translate(1236.000000, 1441.000000)">
                <path d="M21.5,2.05918973 C10.780373,2.05918973 2.05918973,10.7798583 2.05918973,21.5 C2.05918973,32.219627 10.780373,40.9408103 21.5,40.9408103 C32.219627,40.9408103 40.9408103,32.219627 40.9408103,21.5 C40.9408103,10.7798583 32.219627,2.05918973 21.5,2.05918973 M21.5,43 C9.64472991,43 0,33.3552701 0,21.5 C0,9.64472991 9.64472991,0 21.5,0 C33.3552701,0 43,9.64472991 43,21.5 C43,33.3552701 33.3552701,43 21.5,43" id="Fill-23" fill-opacity="0.8" fill="#792C02"></path>
                <path d="M21,50 C20.448,50 20,49.5115096 20,48.9096196 L20,42.0903804 C20,41.4884904 20.448,41 21,41 C21.552,41 22,41.4884904 22,42.0903804 L22,48.9096196 C22,49.5115096 21.552,50 21,50" id="Fill-25" fill="#792C02"></path>
                <path d="M34.9741214,51 L6.02587862,51 C5.45908068,51 5,50.552 5,50 C5,49.448 5.45908068,49 6.02587862,49 L34.9741214,49 C35.5404064,49 36,49.448 36,50 C36,50.552 35.5404064,51 34.9741214,51" id="Fill-27" fill="#792C02"></path>
                <path d="M29,20.5 C29,25.1945279 25.1944112,29 20.4997393,29 C15.8055888,29 12,25.1945279 12,20.5 C12,15.8054721 15.8055888,12 20.4997393,12 C25.1944112,12 29,15.8054721 29,20.5" id="Fill-29" fill-opacity="0.8" fill="#FFC72A"></path>
                <path d="M20,19.5 C20,20.8806489 18.8806489,22 17.5,22 C16.1193511,22 15,20.8806489 15,19.5 C15,18.1193511 16.1193511,17 17.5,17 C18.8806489,17 20,18.1193511 20,19.5" id="Fill-31" fill-opacity="0.8" fill="#FFFFFF"></path>
            </g>
        </g>
    </g>
</svg>