<?xml version="1.0" encoding="UTF-8"?>
<svg width="42px" height="51px" viewBox="0 0 42 51" version="1.1" xmlns="http://www.w3.org/2000/svg" xmlns:xlink="http://www.w3.org/1999/xlink">
    <title>编组 13</title>
    <defs>
        <polygon id="path-1" points="0 0 15 0 15 15 0 15"></polygon>
    </defs>
    <g id="loona" stroke="none" stroke-width="1" fill="none" fill-rule="evenodd" opacity="0.8">
        <g id="HOME备份-4" transform="translate(-1114.000000, -1631.000000)">
            <g id="编组-13" transform="translate(1114.000000, 1631.000000)">
                <path d="M10.0050468,7 L10.0050468,7 C6.94328789,7 4.09234369,8.3699628 2.18355925,10.7592029 C-1.25922785,15.0673275 -0.553909352,21.3718619 3.75608115,24.8131585 C5.52276083,26.2237051 7.73813758,27 9.99463623,27 C13.0563952,27 15.9073394,25.6300372 17.8166443,23.2413174 C21.2594314,18.9326725 20.5535924,12.6281381 16.2436019,9.18684149 C14.4774428,7.77681521 12.2615455,7 10.0050468,7 M10.0050468,9.08121959 C11.7389331,9.08121959 13.4842711,9.64731132 14.9443584,10.8127943 C18.3626806,13.5423138 18.9201685,18.5252738 16.1894668,21.9421161 C14.6252734,23.8995031 12.3208859,24.9187804 9.99463623,24.9187804 C8.26127049,24.9187804 6.51593255,24.3526887 5.05584519,23.1872057 C1.63752301,20.4576862 1.07951458,15.4752465 3.81021629,12.0578839 C5.37493023,10.0999766 7.67931767,9.08121959 10.0050468,9.08121959" id="Fill-63" fill="#792C02"></path>
                <g id="编组" transform="translate(27.000000, 36.000000)">
                    <mask id="mask-2" fill="white">
                        <use xlink:href="#path-1"></use>
                    </mask>
                    <g id="Clip-66"></g>
                    <path d="M7.50550257,0 L7.50550257,0 C4.97283354,0 2.62945673,1.26030012 1.23709612,3.37159375 C-1.04048394,6.82363219 -0.0833941854,11.4838588 3.36992331,13.7605953 C4.59981654,14.5716194 6.02608779,15.0001518 7.49487386,15.0001518 C10.0270368,15.0001518 12.3704136,13.7398517 13.7627742,11.628558 C16.0403542,8.1765196 15.0837706,3.51578706 11.629947,1.23955653 C10.4000538,0.428532399 8.97378251,0 7.50550257,0 M7.50499644,2.02376576 C8.54003004,2.02376576 9.58670461,2.31670585 10.5154511,2.92889499 C13.0410344,4.59394827 13.73848,7.9898272 12.0728098,10.514475 C11.0200617,12.1107202 9.27442308,12.976386 7.49487386,12.976386 C6.45984026,12.976386 5.41316569,12.6834459 4.48441915,12.0712568 C1.95883593,10.4062035 1.26189644,7.00981864 2.92706052,4.4856768 C3.97980864,2.88943156 5.72544722,2.02376576 7.50499644,2.02376576" id="Fill-65" fill="#792C02" mask="url(#mask-2)"></path>
                </g>
                <path d="M29.4440428,40 C28.3550774,38.7099276 27.5464093,37.4229576 26.6901725,36.0594623 C24.7347405,32.9457084 22.5184478,29.4167528 16,24.6794209 L17.1943327,23 C24.0339971,27.9710445 26.362818,31.6789038 28.4174794,34.950879 C29.2338198,36.2507756 30.0046375,37.4782834 31,38.6566701 L29.4440428,40 Z" id="Fill-69" fill="#792C02"></path>
                <path d="M36.3040866,26.6129539 C40.7279999,21.8294037 38.5843966,18.7586336 37.427725,17.6417582 C36.6410256,16.9637828 36.3137424,15.6093611 36.4265637,13.5040688 C36.4504492,13.0534445 36.5109255,12.5691763 36.6110416,12.0232277 C37.1726067,8.96622098 36.774175,6.95880188 35.4264188,6.05551426 L35.3034335,5.95815086 C34.2626323,4.99828033 33.0983376,4.40441459 31.7439747,4.14290977 C29.8016201,3.7672196 27.8460522,4.43041215 26.5150667,5.9148216 C25.1540971,7.43185544 24.6956974,9.50299404 25.2887711,11.45434 C25.458003,12.009974 26.0188912,14.9429073 26.0321045,15 L23.7946522,13.8700736 C23.7107986,13.5005005 23.4668608,12.4514227 23.3443837,12.0492252 C22.5414219,9.40766967 23.1619386,6.60503122 25.0036688,4.55122432 C26.8154151,2.53055156 29.4809435,1.62930297 32.1281767,2.14058823 C33.815413,2.46632231 35.327319,3.22789776 36.6232385,4.40594386 C38.6560533,5.81592894 39.3248494,8.50285278 38.610315,12.3928008 C38.5259532,12.8515812 38.475641,13.2507201 38.4563293,13.6131566 C38.3648526,15.3198197 38.6479221,15.9947366 38.7541367,16.0961781 L38.8085145,16.1446049 C41.3622381,18.5842971 42.4365808,22.9794132 37.7946481,28 L36.3040866,26.6129539 Z" id="Fill-73" fill="#FFC72A"></path>
                <path d="M36.592514,9.77904823 C34.1902051,10.5619551 33.34779,9.08795127 33.0854748,8.10629093 C32.6308298,6.40477996 34.0549003,4.42380351 35.8159368,2.86404309 C38.0155476,0.91585591 41.6221214,-0.606575189 41.8968783,0.238883566 C42.3888488,1.78805053 41.2006546,7.09537247 36.592514,9.77904823" id="Fill-75" fill="#FFC72A"></path>
                <path d="M17.2543945,12.5861816 C31.5838744,15.7187097 38.5799974,24.3853764 38.2427634,38.5861816" id="路径-3" stroke="#792C02" stroke-width="2"></path>
            </g>
        </g>
    </g>
</svg>