<?xml version="1.0" encoding="UTF-8"?>
<svg width="51px" height="51px" viewBox="0 0 51 51" version="1.1" xmlns="http://www.w3.org/2000/svg" xmlns:xlink="http://www.w3.org/1999/xlink">
    <title>编组 8</title>
    <g id="loona" stroke="none" stroke-width="1" fill="none" fill-rule="evenodd" fill-opacity="0.8">
        <g id="HOME备份-4" transform="translate(-1110.000000, -1440.000000)">
            <g id="编组-8" transform="translate(1110.000000, 1440.000000)">
                <path d="M43.6473402,51 C43.5104639,51 43.4122474,50.9963434 43.3600045,50.9937316 L25.4997388,50.9937316 C11.4390961,50.9937316 0,39.5560415 0,25.497127 C0,11.4382125 11.4390961,0 25.4997388,0 C39.5609039,0 51,11.4382125 51,25.497127 L51,33.6475782 C51,34.2247908 50.5324264,34.6923069 49.9551428,34.6923069 C49.3783817,34.6923069 48.9102857,34.2247908 48.9102857,33.6475782 L48.9102857,25.497127 C48.9102857,12.5900259 38.4084265,2.08945746 25.4997388,2.08945746 C12.5915735,2.08945746 2.0897143,12.5900259 2.0897143,25.497127 C2.0897143,38.4042281 12.5915735,48.9042742 25.4997388,48.9042742 L43.4514295,48.9063636 C43.4770285,48.9063636 46.3284437,49.0468796 47.8602043,47.4108345 C48.6929554,46.5217703 49.0090247,45.2085463 48.8005757,43.5087726 C48.7305703,42.9357389 49.1380646,42.4149417 49.7106463,42.3449448 C50.283228,42.2733809 50.8046117,42.6818699 50.8751396,43.2549036 C51.1629977,45.6044985 50.6583317,47.4865773 49.3752471,48.8499483 C47.5164463,50.8239632 44.6185349,51 43.6473402,51" id="Fill-15" fill="#792C02"></path>
                <path d="M14,35 C13.4476,35 13,34.4003215 13,33.6602358 L13,18.3397642 C13,17.5996785 13.4476,17 14,17 C14.5524,17 15,17.5996785 15,18.3397642 L15,33.6602358 C15,34.4003215 14.5524,35 14,35" id="Fill-17" fill="#FFC72A"></path>
                <path d="M25,42 C24.4476,42 24,41.4211844 24,40.7068462 L24,12.2931538 C24,11.5788156 24.4476,11 25,11 C25.5524,11 26,11.5788156 26,12.2931538 L26,40.7068462 C26,41.4211844 25.5524,42 25,42" id="Fill-19" fill="#FFC72A"></path>
                <path d="M36,35 C35.4476,35 35,34.4003215 35,33.6602358 L35,18.3397642 C35,17.5996785 35.4476,17 36,17 C36.5524,17 37,17.5996785 37,18.3397642 L37,33.6602358 C37,34.4003215 36.5524,35 36,35" id="Fill-21" fill="#FFC72A"></path>
            </g>
        </g>
    </g>
</svg>