<?xml version="1.0" encoding="UTF-8"?>
<svg width="50px" height="51px" viewBox="0 0 50 51" version="1.1" xmlns="http://www.w3.org/2000/svg" xmlns:xlink="http://www.w3.org/1999/xlink">
    <title>编组 12</title>
    <g id="loona" stroke="none" stroke-width="1" fill="none" fill-rule="evenodd" opacity="0.8">
        <g id="HOME备份-4" transform="translate(-1229.000000, -1629.000000)">
            <g id="编组-12" transform="translate(1229.000000, 1629.000000)">
                <path d="M24.9110318,0 C20.9085189,0 17.2308338,0.488556635 14.5556255,1.37608383 C6.49672568,4.04908239 1.12465398,10.2065627 0.186614518,17.8474218 C-0.381702182,22.4736052 0.192952622,34.3380312 4.09616862,40.7991666 C6.47454231,44.7352247 10.117896,47.5962499 14.9253483,49.3015105 C18.88191,50.7057202 22.7064278,51 25.2184299,51 C27.7394109,51 31.5491399,50.7041576 35.3821086,49.2931769 C39.9809315,47.6004167 43.5207629,44.7425166 45.903362,40.7991666 C49.806578,34.3380312 50.3817609,22.4736052 49.8134442,17.8474218 C48.8764611,10.2169797 43.5054458,4.06002022 35.446546,1.37660468 C32.8188735,0.501577867 28.9785104,0 24.9110318,0 M24.9110318,2.08339716 C28.6383654,2.08339716 32.3165787,2.5339318 34.7704815,3.35062349 C42.1216263,5.7980943 46.8746765,11.249303 47.7160598,18.0979503 C48.2363126,22.332455 47.7160598,33.7281167 44.0885514,39.7329881 C39.2288098,47.7769846 30.0507064,48.9166028 25.2184299,48.9166028 C20.5609795,48.9166028 10.771249,47.7769846 5.91150737,39.7329881 C2.28399892,33.7281167 1.76374618,22.332455 2.28399892,18.0979503 C3.12485411,11.249303 7.8752634,5.78976072 15.2295773,3.35062349 C17.8466862,2.48236772 21.4002501,2.08339716 24.9110318,2.08339716" id="Fill-45" fill="#792C02"></path>
                <path d="M9.8478426,30.5207895 C11.1567569,31.7035683 11.2618255,30.0962839 14.8885218,29.8092119 C18.5146954,29.52214 20.8863185,30.5324634 21.7864584,30.9352131 C22.7284167,31.3565349 23.5632155,29.6250826 22.5104386,28.5685943 C18.4880362,24.5326071 12.8556273,24.7862492 11.1619842,25.2526748 C9.02088476,25.8427376 8.25822263,29.0843686 9.8478426,30.5207895" id="Fill-47" fill="#FFC72A"></path>
                <path d="M31.0640556,18.147198 C30.0517556,18.3728288 28.0935862,19.0204919 27.4190603,21.6762697 C26.7220501,24.4197359 26.4966971,33.0696026 30.0078092,31.8173513 C34.7325571,30.132299 35.4581835,31.1640474 36.8854192,31.8106849 C37.8323106,32.2398964 38.9120631,31.9183724 39.5554178,31.0578983 C40.6770728,29.5569403 42.7716803,21.2455199 38.0540865,19.050747 C35.8930484,18.0456641 32.6078003,17.8031109 31.0640556,18.147198" id="Fill-49" fill="#FFC72A"></path>
            </g>
        </g>
    </g>
</svg>