<?xml version="1.0" encoding="UTF-8"?>
<svg width="33px" height="33px" viewBox="0 0 33 33" version="1.1" xmlns="http://www.w3.org/2000/svg" xmlns:xlink="http://www.w3.org/1999/xlink">
    <title>形状</title>
    <g id="loona" stroke="none" stroke-width="1" fill="none" fill-rule="evenodd">
        <g id="HOME备份-4" transform="translate(-1422.000000, -134.000000)" fill="#FFFFFF" fill-rule="nonzero">
            <path d="M1438.5,134 C1429.38735,134 1422,141.387351 1422,150.499953 C1422,159.612649 1429.38735,167 1438.5,167 C1447.6127,167 1455,159.612649 1455,150.5 C1455,141.387304 1447.6127,134 1438.5,134 Z M1447.21698,148.805584 C1445.53372,148.824706 1443.96282,148.307728 1442.57893,147.350336 L1442.57893,154.071279 C1442.57893,157.058415 1440.57262,159.624336 1437.72794,160.294442 C1433.84706,161.194354 1430.56448,158.341299 1430.15002,154.933023 C1429.71671,151.524671 1431.85344,148.537496 1435.13146,147.867276 C1435.77198,147.73327 1436.70682,147.73327 1437.23045,147.848154 L1437.23045,151.447954 C1437.08084,151.409634 1436.93767,151.37139 1436.78697,151.35223 C1435.50594,151.122424 1434.26683,151.773446 1433.75816,152.960721 C1433.24956,154.147919 1433.59071,155.526565 1434.62694,156.330753 C1435.49352,157.020095 1436.45544,157.115705 1437.43501,156.656207 C1438.41465,156.215831 1438.93671,155.411719 1439.04974,154.320245 C1439.0686,154.167079 1439.06317,153.994715 1439.06317,153.822313 L1439.06317,140.897367 C1439.06317,140.533593 1439.0751,140.537736 1439.43305,140.537736 L1442.24014,140.537736 C1442.44731,140.537736 1442.52275,140.573928 1442.5416,140.822894 C1442.69226,143.044086 1444.3518,144.938722 1446.4806,145.225894 C1446.7067,145.264176 1446.95516,145.282272 1447.21698,145.301432 L1447.21698,148.805546 L1447.21698,148.805546 L1447.21698,148.805584 Z" id="形状"></path>
        </g>
    </g>
</svg>