<?xml version="1.0" encoding="UTF-8"?>
<svg width="33px" height="33px" viewBox="0 0 33 33" version="1.1" xmlns="http://www.w3.org/2000/svg" xmlns:xlink="http://www.w3.org/1999/xlink">
    <title>编组 2</title>
    <g id="loona" stroke="none" stroke-width="1" fill="none" fill-rule="evenodd">
        <g id="HOME备份-4" transform="translate(-1312.000000, -134.000000)" fill-rule="nonzero">
            <g id="编组-2" transform="translate(1312.000000, 134.000000)">
                <path d="M0,16.5 C0,25.6126984 7.38730163,33 16.5,33 C25.6126984,33 33,25.6126984 33,16.5 C33,7.38730163 25.6126984,0 16.5,0 C7.38730163,0 0,7.38730163 0,16.5 Z" id="路径" fill="#FFFFFF"></path>
                <path d="M16.9054054,11.1891892 C14.2640333,11.1891892 12,13.3274428 12,16.0945946 C12,18.7359667 14.1382536,21 16.9054054,21 C19.5467775,21 21.8108108,18.8617464 21.8108108,16.0945946 C21.8108108,13.4532225 19.5467775,11.1891892 16.9054054,11.1891892 Z M17.2027027,18.9189189 C15.4545946,18.9189189 14.0810811,17.5454054 14.0810811,15.7972973 C14.0810811,14.0491892 15.4545946,12.6756757 17.2027027,12.6756757 C18.9508108,12.6756757 20.3243243,14.0491892 20.3243243,15.7972973 C20.3243243,17.5454054 18.9508108,18.9189189 17.2027027,18.9189189 Z M21.9594595,10 C21.3813814,10 20.9189189,10.4624625 20.9189189,11.0405405 C20.9189189,11.6186186 21.3813814,12.0810811 21.9594595,12.0810811 C22.5375376,12.0810811 23,11.6186186 23,11.0405405 C23,10.4624624 22.5375375,10 21.9594595,10 Z" id="形状" fill="#FFC72B"></path>
                <path d="M20.9548626,7.09405942 L20.4508495,7.09405942 C18.9388102,6.96864686 14.1506858,6.96864686 12.6386465,7.09405942 C9.74057121,6.96864686 7.22050572,9.22607261 7.09450247,12.1105611 L7.09450247,12.6122112 C6.96849918,14.1171617 6.96849918,18.8828383 7.09450247,20.3877888 C6.96849918,23.2722772 9.23655812,25.7805281 12.1346334,25.9059406 L12.6386465,25.9059406 C14.1506858,26.0313531 18.9388102,26.0313531 20.4508495,25.9059406 C23.3489248,26.0313531 25.8689903,23.7739274 25.9949936,20.8894389 L25.9949936,20.3877888 L25.9949936,12.6122112 C26.1209968,9.72772277 23.8529379,7.21947194 20.9548626,7.09405942 Z M24.0178838,22.0044343 C23.6403378,22.8801398 23.0110946,23.5056436 22.2560026,23.7558452 C18.6063918,24.2562483 14.8309323,24.2562483 11.0554728,23.7558452 C10.1745322,23.3805429 9.54528897,22.755039 9.29359167,22.0044343 C8.91604571,20.1279226 8.79019708,18.2514109 8.91604571,16.5 C8.79019704,14.6234883 8.91604571,12.7469766 9.29359167,10.9955657 C9.67113764,10.1198602 10.3003809,9.49435635 11.0554728,9.24415479 C14.7050836,8.74375168 18.4805431,8.74375168 22.2560026,9.24415479 C23.1369432,9.61945714 23.7661864,10.244961 24.0178838,10.9955657 C24.3954297,12.8720774 24.5212784,14.7485891 24.3954297,16.5 C24.5212784,18.3765117 24.3954297,20.2530234 24.0178838,22.0044343 Z" id="形状" fill="#FFC72B"></path>
            </g>
        </g>
    </g>
</svg>