<?xml version="1.0" encoding="UTF-8"?>
<svg width="33px" height="33px" viewBox="0 0 33 33" version="1.1" xmlns="http://www.w3.org/2000/svg" xmlns:xlink="http://www.w3.org/1999/xlink">
    <title>形状</title>
    <g id="loona" stroke="none" stroke-width="1" fill="none" fill-rule="evenodd">
        <g id="HOME备份-4" transform="translate(-1367.000000, -134.000000)" fill="#FFFFFF" fill-rule="nonzero">
            <path d="M1400,150.5 C1400,141.3875 1392.6125,134 1383.5,134 C1374.3875,134 1367,141.3875 1367,150.5 C1367,159.6125 1374.3875,167 1383.5,167 C1392.6125,167 1400,159.6125 1400,150.5 Z M1379.14151,150.642931 L1379.14151,147.490566 L1381.04131,147.490566 L1381.04131,145.584171 C1381.04131,143.01286 1381.79681,141.160377 1384.56551,141.160377 L1387.85849,141.160377 L1387.85849,144.305255 L1385.54044,144.305255 C1384.37847,144.305255 1384.11486,145.089976 1384.11486,145.912137 L1384.11486,147.490566 L1387.68766,147.490566 L1387.20019,150.642931 L1384.11486,150.642931 L1384.11486,160.150943 L1381.04131,160.150943 L1381.04131,150.642931 L1379.14151,150.642931 Z" id="形状"></path>
        </g>
    </g>
</svg>