<?xml version="1.0" encoding="UTF-8"?>
<svg width="33px" height="33px" viewBox="0 0 33 33" version="1.1" xmlns="http://www.w3.org/2000/svg" xmlns:xlink="http://www.w3.org/1999/xlink">
    <title>编组 4</title>
    <g id="loona" stroke="none" stroke-width="1" fill="none" fill-rule="evenodd">
        <g id="HOME备份-4" transform="translate(-1477.000000, -134.000000)" fill="#FFFFFF" fill-rule="nonzero">
            <g id="编组-4" transform="translate(1477.000000, 134.000000)">
                <path d="M25.1798364,20.3629438 C24.8313709,21.6436945 24.4011227,22.2659073 23.2051986,22.4955753 C23.2051986,22.4955753 20.1033815,22.7264151 16.8664452,22.7264151 C13.2988223,22.7264151 9.54866981,22.4955753 9.54866981,22.4955753 C8.33733737,22.3479316 7.77315513,21.5604984 7.50884286,20.3629438 C7.50884286,20.3629438 7.16037736,18.2959318 7.16037736,16.2453246 C7.16037736,14.2603368 7.50884286,12.2765208 7.50884286,12.2765208 C7.85730835,11.0461565 8.18799501,10.2903613 9.54748457,10.1427176 C9.54748457,10.1427176 12.9171696,9.96226415 16.3188566,9.96226415 C19.754916,9.96226415 23.2051986,10.1427176 23.2051986,10.1427176 C24.5006842,10.2903613 24.7993689,10.9969419 25.1798364,12.2765208 C25.1798364,12.2765208 25.5283019,14.4255572 25.5283019,16.5078023 C25.5283019,18.4599804 25.1798364,20.3629438 25.1798364,20.3629438 M16.5,0 C7.3755,0 0,7.37667856 0,16.5 C0,25.608 7.39317856,33 16.5,33 C25.608,33 33,25.608 33,16.5 C33,7.37667856 25.608,0 16.5,0" id="形状"></path>
                <polygon id="路径" points="14 20 19 16.5018113 14 13"></polygon>
            </g>
        </g>
    </g>
</svg>