<?xml version="1.0" encoding="UTF-8"?>
<svg width="40px" height="40px" viewBox="0 0 40 40" version="1.1" xmlns="http://www.w3.org/2000/svg" xmlns:xlink="http://www.w3.org/1999/xlink">
    <title>icon_skill_游戏</title>
    <g id="小四足操控" stroke="none" stroke-width="1" fill="none" fill-rule="evenodd" stroke-linecap="round" stroke-linejoin="round">
        <g id="小四足操控-切图" transform="translate(-466.000000, -277.000000)">
            <g id="编组-11" transform="translate(465.000000, 277.000000)">
                <g id="编组" transform="translate(1.000000, 0.000000)">
                    <g id="编组-4" transform="translate(2.500000, 21.000000)" stroke="#333333" stroke-width="2">
                        <polyline id="路径" points="4.5 3 17.5 7 17.5 17 4.5 13 4.5 9.5"></polyline>
                        <polygon id="矩形备份-2" points="4.5 3 17.5 7 13 12 2.33146835e-14 8"></polygon>
                        <polyline id="路径" points="30.5 9.5 30.5 13 17.5 17 17.5 7 30.5 3"></polyline>
                        <path d="M4.5,3 L11,1 M23.3291553,0.793586248 L30.5,3" id="形状"></path>
                        <polygon id="矩形备份-3" points="17.5 7 30.5 3 34.5 8 21.5 12"></polygon>
                    </g>
                    <g id="编组-2" transform="translate(21.218911, 19.183013) rotate(-300.000000) translate(-21.218911, -19.183013) translate(15.718911, 10.683013)" stroke="#333333">
                        <ellipse id="椭圆形" stroke-width="2" cx="5.23205081" cy="8.59807621" rx="5" ry="8"></ellipse>
                        <path d="M7.23205081,8.59807621 C7.23205081,5.83665246 6.33662031,3.59807621 5.23205081,3.59807621" id="路径"></path>
                    </g>
                    <line x1="7.5" y1="15.5" x2="10" y2="18" id="路径-9" stroke="#FE832D"></line>
                    <line x1="18.5" y1="6.5" x2="19.5" y2="12.5" id="路径-9备份" stroke="#FE832D"></line>
                    <line x1="34.5" y1="15.5" x2="31.5" y2="18.5" id="路径-9备份-2" stroke="#FE832D"></line>
                    <g id="编组-3" transform="translate(9.000000, 7.500000) rotate(-15.000000) translate(-9.000000, -7.500000) translate(3.500000, 2.000000)" stroke="#333333" stroke-width="2">
                        <polygon id="多边形" points="5.5 0 10.2631397 2.75 10.2631397 8.25 5.5 11 0.736860279 8.25 0.736860279 2.75"></polygon>
                        <polyline id="路径-10" points="3.5 4.5 5.5 5.5 5.5 7.5"></polyline>
                    </g>
                    <polygon id="三角形" stroke="#FE832D" transform="translate(3.816987, 19.316987) rotate(-30.000000) translate(-3.816987, -19.316987) " points="3.8169873 16.8169873 7.3169873 21.8169873 0.316987298 21.8169873"></polygon>
                    <circle id="椭圆形" stroke="#FE832D" cx="36" cy="21" r="2"></circle>
                    <g transform="translate(31.000000, 6.000000) rotate(-15.000000) translate(-31.000000, -6.000000) translate(27.000000, 2.000000)" stroke="#333333">
                        <circle id="椭圆形" stroke-width="1.6" cx="4" cy="4" r="4"></circle>
                        <line x1="4" y1="0" x2="4" y2="8" id="路径-7" stroke-width="0.8"></line>
                        <path d="M1.22842712,6.82842712 C1.95228475,6.1045695 2.4,5.1045695 2.4,4 C2.4,2.8954305 1.95228475,1.8954305 1.22842712,1.17157288" id="路径" stroke-width="0.8"></path>
                        <path d="M6.77157288,1.17157288 C6.04771525,1.8954305 5.6,2.8954305 5.6,4 C5.6,5.1045695 6.04771525,6.1045695 6.77157288,6.82842712" id="路径" stroke-width="0.8"></path>
                    </g>
                </g>
            </g>
        </g>
    </g>
</svg>