<?xml version="1.0" encoding="UTF-8"?>
<svg width="40px" height="40px" viewBox="0 0 40 40" version="1.1" xmlns="http://www.w3.org/2000/svg" xmlns:xlink="http://www.w3.org/1999/xlink">
    <title>icon_skill_健康</title>
    <g id="小四足操控" stroke="none" stroke-width="1" fill="none" fill-rule="evenodd">
        <g id="小四足操控-切图" transform="translate(-346.000000, -277.000000)">
            <g id="编组" transform="translate(346.000000, 277.000000)">
                <line x1="8.5" y1="24.5" x2="32.5" y2="24.5" id="路径-6备份-3" stroke="#FE832D" stroke-linecap="round" stroke-linejoin="round"></line>
                <path d="M35,19 L33.2078021,34.2336825 C33.0893049,35.2409083 32.2356731,36 31.2215009,36 L24.5,36 L24.5,36 L24.5,32.25 C24.5,29.9027898 22.5972102,28 20.25,28 C17.9027898,28 16,29.9027898 16,32.25 L16,36 L16,36 L9.77849915,36 C8.76432685,36 7.9106951,35.2409083 7.79219794,34.2336825 L6,19 L6,19" id="路径" stroke="#333333" stroke-width="2" stroke-linecap="round" stroke-linejoin="round"></path>
                <path d="M2,17 L17.5442375,4.91003746 C18.9886795,3.78658262 21.0113205,3.78658262 22.4557625,4.91003746 L38,17 L38,17" id="路径-5" stroke="#333333" stroke-width="2" stroke-linecap="round" stroke-linejoin="round"></path>
                <g transform="translate(13.333333, 10.000000)" stroke="#333333" stroke-linecap="round" stroke-linejoin="round" stroke-width="2">
                    <circle id="椭圆形" cx="7.66666667" cy="8" r="6"></circle>
                    <path d="M8.66666667,2 C5.58927908,0.666666667 3.79937755,4.54747351e-13 3.2969621,4.54747351e-13 C2.54333891,4.54747351e-13 0.543478261,1.76857143 0.166666667,2.5 C-0.0845410628,2.98761905 0.415458937,4.98761905 1.66666667,8.5" id="路径-4"></path>
                </g>
                <circle id="椭圆形" fill="#333333" cx="22.5" cy="17.5" r="2.5"></circle>
                <line x1="9.5" y1="29.5" x2="13.5" y2="29.5" id="路径-6" stroke="#FE832D" stroke-linecap="round" stroke-linejoin="round"></line>
                <line x1="27.5" y1="29.5" x2="31.5" y2="29.5" id="路径-6备份" stroke="#FE832D" stroke-linecap="round" stroke-linejoin="round"></line>
                <line x1="7.5" y1="18.5" x2="11.5" y2="18.5" id="路径-6备份-4" stroke="#FE832D" stroke-linecap="round" stroke-linejoin="round"></line>
                <line x1="29.5" y1="18.5" x2="33.5" y2="18.5" id="路径-6备份-2" stroke="#FE832D" stroke-linecap="round" stroke-linejoin="round"></line>
                <path d="M33,7.9672785 C34.7333333,7.97512277 37,5.36823476 37,3.9295453 C37,2.88755421 36.0442955,2.11719814 35.1221477,1.98138063 C34.5073826,1.89083562 33.8,2.23630978 33,3.01780309 C32.2888889,2.23630978 31.5815063,1.89083562 30.8778523,1.98138063 C29.8223712,2.11719814 29,2.88755421 29,3.9295453 C29,5.36823476 31.2666667,7.95939875 33,7.9672785 Z" id="椭圆形备份" fill="#FE832D"></path>
            </g>
        </g>
    </g>
</svg>