<?xml version="1.0" encoding="UTF-8"?>
<svg width="58px" height="58px" viewBox="0 0 58 58" version="1.1" xmlns="http://www.w3.org/2000/svg" xmlns:xlink="http://www.w3.org/1999/xlink">
    <title>btn_control_bg_b_nor</title>
    <defs>
        <path d="M14.2555408,4 L43.7444592,4 C47.3105342,4 48.6036791,4.37130244 49.9073828,5.06853082 C51.2110865,5.76575919 52.2342408,6.78891348 52.9314692,8.09261719 C53.6286976,9.39632089 54,10.6894658 54,14.2555408 L54,43.7444592 C54,47.3105342 53.6286976,48.6036791 52.9314692,49.9073828 C52.2342408,51.2110865 51.2110865,52.2342408 49.9073828,52.9314692 C48.6036791,53.6286976 47.3105342,54 43.7444592,54 L14.2555408,54 C10.6894658,54 9.39632089,53.6286976 8.09261719,52.9314692 C6.78891348,52.2342408 5.76575919,51.2110865 5.06853082,49.9073828 C4.37130244,48.6036791 4,47.3105342 4,43.7444592 L4,14.2555408 C4,10.6894658 4.37130244,9.39632089 5.06853082,8.09261719 C5.76575919,6.78891348 6.78891348,5.76575919 8.09261719,5.06853082 C9.39632089,4.37130244 10.6894658,4 14.2555408,4 Z" id="path-1"></path>
        <filter x="-11.0%" y="-11.0%" width="122.0%" height="122.0%" filterUnits="objectBoundingBox" id="filter-2">
            <feGaussianBlur stdDeviation="2" in="SourceAlpha" result="shadowBlurInner1"></feGaussianBlur>
            <feOffset dx="0" dy="1" in="shadowBlurInner1" result="shadowOffsetInner1"></feOffset>
            <feComposite in="shadowOffsetInner1" in2="SourceAlpha" operator="arithmetic" k2="-1" k3="1" result="shadowInnerInner1"></feComposite>
            <feColorMatrix values="0 0 0 0 0.704504533   0 0 0 0 0.772308606   0 0 0 0 0.862149004  0 0 0 1 0" type="matrix" in="shadowInnerInner1" result="shadowMatrixInner1"></feColorMatrix>
            <feGaussianBlur stdDeviation="2" in="SourceAlpha" result="shadowBlurInner2"></feGaussianBlur>
            <feOffset dx="0" dy="-5" in="shadowBlurInner2" result="shadowOffsetInner2"></feOffset>
            <feComposite in="shadowOffsetInner2" in2="SourceAlpha" operator="arithmetic" k2="-1" k3="1" result="shadowInnerInner2"></feComposite>
            <feColorMatrix values="0 0 0 0 1   0 0 0 0 1   0 0 0 0 1  0 0 0 1 0" type="matrix" in="shadowInnerInner2" result="shadowMatrixInner2"></feColorMatrix>
            <feGaussianBlur stdDeviation="0.5" in="SourceAlpha" result="shadowBlurInner3"></feGaussianBlur>
            <feOffset dx="0" dy="1" in="shadowBlurInner3" result="shadowOffsetInner3"></feOffset>
            <feComposite in="shadowOffsetInner3" in2="SourceAlpha" operator="arithmetic" k2="-1" k3="1" result="shadowInnerInner3"></feComposite>
            <feColorMatrix values="0 0 0 0 1   0 0 0 0 1   0 0 0 0 1  0 0 0 0.273546766 0" type="matrix" in="shadowInnerInner3" result="shadowMatrixInner3"></feColorMatrix>
            <feMerge>
                <feMergeNode in="shadowMatrixInner1"></feMergeNode>
                <feMergeNode in="shadowMatrixInner2"></feMergeNode>
                <feMergeNode in="shadowMatrixInner3"></feMergeNode>
            </feMerge>
        </filter>
    </defs>
    <g id="小四足操控" stroke="none" stroke-width="1" fill="none" fill-rule="evenodd">
        <g id="小四足操控-切图" transform="translate(-52.000000, -268.000000)">
            <g id="btn/小四足/技能pro备份-3" transform="translate(52.000000, 268.000000)">
                <g id="矩形">
                    <use fill="#FFFFFF" fill-rule="evenodd" xlink:href="#path-1"></use>
                    <use fill="black" fill-opacity="1" filter="url(#filter-2)" xlink:href="#path-1"></use>
                    <path stroke="#333333" stroke-width="1" d="M43.7444592,3.5 C47.4521328,3.5 48.7895976,3.90371921 50.1431822,4.62762422 C51.535309,5.37214176 52.6278582,6.46469099 53.3723758,7.85681776 C54.0962808,9.21040243 54.5,10.5478672 54.5,14.2555408 L54.5,14.2555408 L54.5,43.7444592 C54.5,47.4521328 54.0962808,48.7895976 53.3723758,50.1431822 C52.6278582,51.535309 51.535309,52.6278582 50.1431822,53.3723758 C48.7895976,54.0962808 47.4521328,54.5 43.7444592,54.5 L43.7444592,54.5 L14.2555408,54.5 C10.5478672,54.5 9.21040243,54.0962808 7.85681776,53.3723758 C6.46469099,52.6278582 5.37214176,51.535309 4.62762422,50.1431822 C3.90371921,48.7895976 3.5,47.4521328 3.5,43.7444592 L3.5,43.7444592 L3.5,14.2555408 C3.5,10.5478672 3.90371921,9.21040243 4.62762422,7.85681776 C5.37214176,6.46469099 6.46469099,5.37214176 7.85681776,4.62762422 C9.21040243,3.90371921 10.5478672,3.5 14.2555408,3.5 L14.2555408,3.5 Z"></path>
                </g>
                <path d="M40.1052178,50.5 L38.6687003,52.834341 C38.0317057,53.8694571 36.9033086,54.5 35.6878961,54.5 L35.6878961,54.5 L22.3121039,54.5 C21.0966914,54.5 19.9682943,53.8694571 19.3312997,52.834341 L19.3312997,52.834341 L17.8947822,50.5 L40.1052178,50.5 Z" id="矩形备份" stroke="#CCCCCC" transform="translate(29.000000, 52.500000) rotate(-180.000000) translate(-29.000000, -52.500000) "></path>
            </g>
        </g>
    </g>
</svg>