<?xml version="1.0" encoding="UTF-8"?>
<svg width="32px" height="32px" viewBox="0 0 32 32" version="1.1" xmlns="http://www.w3.org/2000/svg" xmlns:xlink="http://www.w3.org/1999/xlink">
    <g id=" " stroke="none" stroke-width="1" fill="none" fill-rule="evenodd">
        <g id=" " transform="translate(-594.000000, -199.000000)">
            <g id=" " transform="translate(594.000000, 199.000000)">
                <g id=" " transform="translate(16.000000, 16.500000) rotate(-360.000000) translate(-16.000000, -16.500000) translate(2.000000, 5.000000)">
                    <path d="M18.5584816,0 C19.4193424,7.30040853e-16 20.1836201,0.55086019 20.4558482,1.36754447 L20.999,2.999 L24,3 C26.209139,3 28,4.790861 28,7 L28,19 C28,21.209139 26.209139,23 24,23 L4,23 C1.790861,23 1.44813962e-14,21.209139 1.42108547e-14,19 L1.42108547e-14,7 C1.39403132e-14,4.790861 1.790861,3 4,3 L7,2.999 L7.54415184,1.36754447 C7.81637994,0.55086019 8.58065762,1.04631599e-15 9.44151844,0 L18.5584816,0 Z" id="形状结合" stroke="#333333" stroke-width="2" stroke-linecap="round" stroke-linejoin="round"></path>
                    <circle id=" " stroke="#333333" stroke-width="2" stroke-linecap="round" stroke-linejoin="round" cx="14" cy="13" r="6"></circle>
                    <path d="M17,13 C17,11.3431458 16.1045695,10 15,10" id=" " stroke="#333333" stroke-linecap="round" stroke-linejoin="round"></path>
                    <circle id=" " fill="#333333" cx="23.5" cy="6.5" r="1.5"></circle>
                    <path d="M12.309017,2 L16.690983,2 C16.880369,2 17.0535006,2.10700119 17.1381966,2.2763932 L17.6381966,3.2763932 C17.7616912,3.52338245 17.6615791,3.82371897 17.4145898,3.9472136 C17.3451621,3.98192745 17.2686056,4 17.190983,4 L11.809017,4 C11.5328746,4 11.309017,3.77614237 11.309017,3.5 C11.309017,3.42237745 11.3270895,3.34582092 11.3618034,3.2763932 L11.8618034,2.2763932 C11.9464994,2.10700119 12.119631,2 12.309017,2 Z" id="矩形" fill="#333333"></path>
                </g>
            </g>
        </g>
    </g>
</svg>