<?xml version="1.0" standalone="no"?><!DOCTYPE svg PUBLIC "-//W3C//DTD SVG 1.1//EN" "http://www.w3.org/Graphics/SVG/1.1/DTD/svg11.dtd"><svg t="1659929023552" class="icon" viewBox="0 0 1024 1024" version="1.1" xmlns="http://www.w3.org/2000/svg" p-id="934" xmlns:xlink="http://www.w3.org/1999/xlink" width="200" height="200"><defs><style type="text/css">@font-face { font-family: feedback-iconfont; src: url("//at.alicdn.com/t/font_1031158_u69w8yhxdu.woff2?t=1630033759944") format("woff2"), url("//at.alicdn.com/t/font_1031158_u69w8yhxdu.woff?t=1630033759944") format("woff"), url("//at.alicdn.com/t/font_1031158_u69w8yhxdu.ttf?t=1630033759944") format("truetype"); }
</style></defs><path d="M834.46 70.81c-7.21-7.18-18.88-7.18-26.09 0L680.44 198.76l26.07 26.07L834.43 96.9h0.03c7.18-7.21 7.18-18.88 0-26.09z" fill="#967ADC" p-id="935"></path><path d="M834.43 149.04l-78.17-78.17s0-0.03-0.03-0.03c-7.18-7.19-18.85-7.19-26.06 0-7.21 7.21-7.21 18.88 0 26.09l78.17 78.14v0.02c7.21 7.21 18.88 7.21 26.09 0 7.19-7.17 7.19-18.87 0-26.05z" fill="#AC92EB" p-id="936"></path><path d="M360.39 751.13v180.95c0 10.18 8.24 18.42 18.42 18.42 10.18 0 18.45-8.24 18.45-18.42V751.13h-36.87z" fill="#D770AD" p-id="937"></path><path d="M378.81 360.45c-112.01 0-202.82 90.81-202.82 202.82 0 112.04 90.81 202.85 202.82 202.85 112.04 0 202.85-90.81 202.85-202.85 0-112.01-90.81-202.82-202.85-202.82z m117.36 320.19c-31.36 31.33-73.04 48.59-117.36 48.59-44.32 0-86-17.26-117.34-48.59-31.36-31.36-48.62-73.04-48.62-117.36 0-44.32 17.26-86 48.62-117.34 31.33-31.36 73.01-48.62 117.34-48.62s86 17.26 117.36 48.62c31.33 31.33 48.59 73.01 48.59 117.34 0.01 44.32-17.25 86-48.59 117.36zM434.1 895.18H323.55c-10.18 0-18.45-8.24-18.45-18.42s8.26-18.45 18.45-18.45H434.1c10.18 0 18.45 8.26 18.45 18.45s-8.27 18.42-18.45 18.42z" fill="#EC87C0" p-id="938"></path><path d="M704.02 201.19c-39.6-39.6-91.51-59.4-143.43-59.4s-103.83 19.8-143.43 59.4c-79.2 79.22-79.2 207.66 0 286.86 35.38 35.38 80.57 54.94 126.81 58.72-1.3-13.07-4.1-25.82-8.34-38.03-34.85-5.24-67.02-21.36-92.38-46.75-31.36-31.36-48.62-73.01-48.62-117.36 0-44.33 17.26-86 48.62-117.34 31.33-31.33 73.01-48.62 117.34-48.62s86 17.29 117.34 48.62c31.36 31.33 48.62 73.01 48.62 117.34 0 44.35-17.26 86-48.59 117.36-28.04 28.01-64.34 44.79-103.4 48.02a200.66 200.66 0 0 1 6.4 36.44c44.92-4.51 88.65-23.96 123.06-58.4 79.2-79.2 79.2-207.63 0-286.86z" fill="#AC92EB" p-id="939"></path></svg>