<?xml version="1.0" standalone="no"?><!DOCTYPE svg PUBLIC "-//W3C//DTD SVG 1.1//EN" "http://www.w3.org/Graphics/SVG/1.1/DTD/svg11.dtd"><svg t="1659928974130" class="icon" viewBox="0 0 1024 1024" version="1.1" xmlns="http://www.w3.org/2000/svg" p-id="791" xmlns:xlink="http://www.w3.org/1999/xlink" width="200" height="200"><defs><style type="text/css">@font-face { font-family: feedback-iconfont; src: url("//at.alicdn.com/t/font_1031158_u69w8yhxdu.woff2?t=1630033759944") format("woff2"), url("//at.alicdn.com/t/font_1031158_u69w8yhxdu.woff?t=1630033759944") format("woff"), url("//at.alicdn.com/t/font_1031158_u69w8yhxdu.ttf?t=1630033759944") format("truetype"); }
</style></defs><path d="M379.68 745.48v170.8c0 9.61 7.8 17.41 17.41 17.41s17.39-7.8 17.39-17.41v-170.8h-34.8z" fill="#967ADC" p-id="792"></path><path d="M706.37 248.71l-24.63-24.63 119.24-119.22 24.61 24.6z" fill="#4A89DC" p-id="793"></path><path d="M832.22 115.62c0-9.61-7.78-17.39-17.39-17.39h-69.1v0.03c-0.18-0.03-0.36-0.03-0.53-0.03-9.61 0-17.41 7.78-17.41 17.39s7.8 17.41 17.41 17.41c0.18 0 0.36-0.03 0.53-0.03v0.03h51.68v51.68h0.03c0 0.18-0.03 0.36-0.03 0.54 0 9.61 7.8 17.41 17.41 17.41s17.39-7.8 17.39-17.41c0-0.18-0.03-0.36-0.03-0.54h0.03v-69.09z" fill="#5D9CEC" p-id="794"></path><path d="M397.09 376.7c-105.76 0-191.48 85.72-191.48 191.48 0 105.73 85.72 191.45 191.48 191.45 105.73 0 191.45-85.72 191.45-191.45 0.01-105.76-85.71-191.48-191.45-191.48z m110.76 302.24c-29.58 29.58-68.92 45.89-110.76 45.89-41.87 0-81.18-16.32-110.78-45.89-29.58-29.58-45.87-68.92-45.87-110.76 0-41.86 16.29-81.18 45.87-110.78 29.6-29.58 68.92-45.87 110.78-45.87 41.84 0 81.18 16.29 110.76 45.87 29.58 29.6 45.89 68.92 45.89 110.78 0 41.84-16.31 81.18-45.89 110.76zM449.26 881.48H344.9c-9.61 0-17.41-7.8-17.41-17.41s7.8-17.41 17.41-17.41h104.36c9.61 0 17.41 7.8 17.41 17.41s-7.8 17.41-17.41 17.41z" fill="#AC92EB" p-id="795"></path><path d="M704.05 226.4c-37.38-37.4-86.38-56.09-135.39-56.09-49.01 0-97.99 18.69-135.39 56.09-74.76 74.76-74.76 195.99 0 270.75 33.4 33.4 76.06 51.86 119.71 55.43a155.883 155.883 0 0 0-7.88-35.9c-32.89-4.94-63.26-20.17-87.2-44.13-29.6-29.58-45.89-68.92-45.89-110.76 0-41.86 16.29-81.21 45.89-110.78 29.58-29.58 68.92-45.87 110.76-45.87s81.18 16.29 110.78 45.87c29.58 29.58 45.87 68.92 45.87 110.78 0 41.84-16.29 81.18-45.87 110.76-26.46 26.47-60.71 42.27-97.58 45.33a190.93 190.93 0 0 1 6.02 34.4c42.43-4.26 83.68-22.62 116.16-55.12 74.79-74.77 74.79-196 0.01-270.76z" fill="#5D9CEC" p-id="796"></path></svg>