<?xml version="1.0" encoding="UTF-8"?>
<svg width="40px" height="40px" viewBox="0 0 40 40" version="1.1" xmlns="http://www.w3.org/2000/svg" xmlns:xlink="http://www.w3.org/1999/xlink">
    <title>icon_skill_食物</title>
    <g id="小四足操控" stroke="none" stroke-width="1" fill="none" fill-rule="evenodd">
        <g id="小四足操控-切图" transform="translate(-286.000000, -277.000000)">
            <g id="编组" transform="translate(286.000000, 277.000000)">
                <path d="M11,32.2507611 C13.6275944,33.9817988 16.8428086,35 20.3152937,35 C23.6611514,35 26.7681592,34.0547042 29.3408061,32.4372744 M32.7287426,28.542066 C34.7811322,25.8678348 36,22.5275815 36,18.9043483 C36,10.1206193 28.836556,3 20,3 C11.163444,3 4,10.1206193 4,18.9043483 C4,22.7374564 5.3641626,26.253852 7.63622505,29" id="形状" stroke="#333333" stroke-width="2" stroke-linecap="round" stroke-linejoin="round"></path>
                <ellipse id="椭圆形" stroke="#FE832D" stroke-linecap="round" stroke-linejoin="round" cx="20" cy="19.5" rx="12" ry="11.5"></ellipse>
                <g transform="translate(11.500000, 23.500000) rotate(15.000000) translate(-11.500000, -23.500000) translate(8.000000, 10.000000)">
                    <path d="M2,12 L5,12 L5,25.5 C5,26.3284271 4.32842712,27 3.5,27 C2.67157288,27 2,26.3284271 2,25.5 L2,12 L2,12 Z" id="矩形备份" stroke="#333333" stroke-width="2" stroke-linecap="round" stroke-linejoin="round"></path>
                    <path d="M0,0 L7,0 L7,8.5 C7,10.4329966 5.43299662,12 3.5,12 C1.56700338,12 2.36723813e-16,10.4329966 0,8.5 L0,0 L0,0 Z" id="矩形" stroke="#333333" stroke-width="2" stroke-linecap="round" stroke-linejoin="round"></path>
                    <rect id="矩形" fill="#333333" x="4" y="0" width="1" height="8"></rect>
                    <rect id="矩形备份-2" fill="#333333" x="2" y="0" width="1" height="8"></rect>
                </g>
                <g id="编组-2" transform="translate(28.500000, 23.000000) rotate(-15.000000) translate(-28.500000, -23.000000) translate(26.000000, 8.000000)" stroke="#333333" stroke-linecap="round" stroke-linejoin="round" stroke-width="2">
                    <path d="M2,16 L5,16 L5,28.5 C5,29.3284271 4.32842712,30 3.5,30 C2.67157288,30 2,29.3284271 2,28.5 L2,16 L2,16 Z" id="矩形备份" transform="translate(3.500000, 23.000000) rotate(-360.000000) translate(-3.500000, -23.000000) "></path>
                    <path d="M4,0 C4.55228475,-1.01453063e-16 5,0.44771525 5,1 L5,16 L5,16 L2,16 L0.992610457,13.9852209 C0.3520809,12.7041618 0.190942677,11.2362293 0.538318602,9.84672559 L2.75746437,0.9701425 C2.90000422,0.399983108 3.41229315,1.07959997e-16 4,0 Z" id="矩形备份-3" transform="translate(2.500000, 8.000000) rotate(-360.000000) translate(-2.500000, -8.000000) "></path>
                </g>
                <path d="M1.75046077,5.83225528 L1,5.5 L1.75046077,5.16774472 C2.72676212,4.73550191 3.49033461,3.59014319 3.77849648,2.12569115 L4,1 L4.22150352,2.12569115 C4.50966539,3.59014319 5.27323788,4.73550191 6.24953923,5.16774472 L7,5.5 L6.24953923,5.83225528 C5.27323788,6.26449809 4.50966539,7.40985681 4.22150352,8.87430885 L4,10 L3.77849648,8.87430885 C3.49033461,7.40985681 2.72676212,6.26449809 1.75046077,5.83225528 Z" id="星形备份-2" fill="#FE832D"></path>
            </g>
        </g>
    </g>
</svg>